<?xml version="1.0" encoding="utf-8"?>
<!-- Generator: Adobe Illustrator 15.1.0, SVG Export Plug-In . SVG Version: 6.00 Build 0)  -->
<!DOCTYPE svg PUBLIC "-//W3C//DTD SVG 1.1//EN" "http://www.w3.org/Graphics/SVG/1.1/DTD/svg11.dtd">
<svg version="1.1" id="Layer_1" xmlns="http://www.w3.org/2000/svg" xmlns:xlink="http://www.w3.org/1999/xlink" x="0px" y="0px"
	 width="1190.551px" height="566.929px" viewBox="0 0 1190.551 566.929" enable-background="new 0 0 1190.551 566.929"
	 xml:space="preserve">
<g>
	<radialGradient id="SVGID_1_" cx="223.2539" cy="267.8286" r="161.2658" gradientUnits="userSpaceOnUse">
		<stop  offset="0.1718" style="stop-color:#8C80B5"/>
		<stop  offset="0.2729" style="stop-color:#8376AF"/>
		<stop  offset="0.5911" style="stop-color:#6C5B9F"/>
		<stop  offset="0.8445" style="stop-color:#5E4B95"/>
		<stop  offset="1" style="stop-color:#594692"/>
	</radialGradient>
	<path fill="url(#SVGID_1_)" d="M243.614,213.614l-81.103-64.658c-0.915-0.721-1.988-1.106-3.108-1.106
		c-0.543,0-1.065,0.086-1.586,0.265l-12.676,4.413c-1.625,0.568-2.928,1.978-3.484,3.779c-0.564,1.802-0.333,3.827,0.606,5.399
		l34.036,56.854l-34.036,56.854c-0.94,1.589-1.171,3.601-0.606,5.404c0.556,1.803,1.859,3.206,3.484,3.779l12.68,4.413
		c0.518,0.18,1.04,0.274,1.583,0.274c1.12,0,2.202-0.394,3.112-1.131l81.098-64.64c1.424-1.142,2.288-2.985,2.288-4.953
		C245.901,216.589,245.038,214.758,243.614,213.614z"/>
	<radialGradient id="SVGID_2_" cx="149.0142" cy="285.6553" r="112.8827" gradientUnits="userSpaceOnUse">
		<stop  offset="0" style="stop-color:#FFFFFF;stop-opacity:0"/>
		<stop  offset="0.1954" style="stop-color:#E3DEE8;stop-opacity:0.1954"/>
		<stop  offset="0.5511" style="stop-color:#C1B6CD;stop-opacity:0.5511"/>
		<stop  offset="0.8316" style="stop-color:#AF9FBD;stop-opacity:0.8316"/>
		<stop  offset="1" style="stop-color:#A897B8"/>
	</radialGradient>
	<path opacity="0.86" fill="url(#SVGID_2_)" d="M159.403,285.917c-0.154,0-0.306-0.028-0.477-0.087l-12.679-4.412
		c-0.605-0.213-1.137-0.825-1.373-1.591c-0.281-0.898-0.169-1.927,0.287-2.698l44.136-58.569h53.237
		c0,0.927-0.393,1.818-1.026,2.326l-81.091,64.635C160.085,285.789,159.75,285.917,159.403,285.917z"/>
	<g>
		<g>
			<linearGradient id="SVGID_3_" gradientUnits="userSpaceOnUse" x1="1281.8228" y1="256.8643" x2="213.9664" y2="424.3478">
				<stop  offset="0.1104" style="stop-color:#00486E"/>
				<stop  offset="0.589" style="stop-color:#36A7BB"/>
				<stop  offset="1" style="stop-color:#00B5CB"/>
			</linearGradient>
			<path fill="url(#SVGID_3_)" d="M223.388,422.332h-80.299c-4.296,0-6.378,3.082-6.378,6.878c0,3.775,2.082,6.849,6.378,6.849
				h80.342c1.834,0,3.331-1.536,3.331-3.417h0.047v-6.987C226.808,423.808,225.272,422.332,223.388,422.332z"/>
			<linearGradient id="SVGID_4_" gradientUnits="userSpaceOnUse" x1="1285.9136" y1="282.8857" x2="218.0394" y2="450.3721">
				<stop  offset="0.1104" style="stop-color:#00486E"/>
				<stop  offset="0.589" style="stop-color:#36A7BB"/>
				<stop  offset="1" style="stop-color:#00B5CB"/>
			</linearGradient>
			<path fill="url(#SVGID_4_)" d="M223.388,448.346H151.25c-4.297,0-6.375,3.089-6.375,6.881c0,3.777,2.078,6.862,6.375,6.862h72.18
				c1.834,0,3.331-1.538,3.331-3.425h0.047v-6.985C226.808,449.845,225.272,448.346,223.388,448.346z"/>
			<linearGradient id="SVGID_5_" gradientUnits="userSpaceOnUse" x1="1290.1401" y1="309.9399" x2="222.2837" y2="477.4235">
				<stop  offset="0.1104" style="stop-color:#00486E"/>
				<stop  offset="0.589" style="stop-color:#36A7BB"/>
				<stop  offset="1" style="stop-color:#00B5CB"/>
			</linearGradient>
			<path fill="url(#SVGID_5_)" d="M223.388,474.376H172.75c-4.284,0-6.375,3.087-6.375,6.889c0,3.784,2.091,6.854,6.375,6.854h50.68
				c1.834,0,3.331-1.537,3.331-3.416h0.047v-6.988C226.808,475.875,225.272,474.376,223.388,474.376z"/>
		</g>
		<linearGradient id="SVGID_6_" gradientUnits="userSpaceOnUse" x1="1253.6128" y1="77.0313" x2="185.7544" y2="244.5151">
			<stop  offset="0.1104" style="stop-color:#00486E"/>
			<stop  offset="0.589" style="stop-color:#36A7BB"/>
			<stop  offset="1" style="stop-color:#00B5CB"/>
		</linearGradient>
		<path fill="url(#SVGID_6_)" d="M221.981,381.731h-70.855c-12.706-49.128-31.975-78.369-47.481-101.896l-0.475-0.716
			c-16.789-25.487-28.914-43.903-28.914-79.825c0-52.284,47.093-94.869,104.976-94.939h10.539c2.659,0,4.827-2.123,4.827-4.732
			V80.781c0-2.615-2.167-4.733-4.827-4.733h-10.671C105.218,76.172,45.111,131.46,45.111,199.294
			c0,44.194,15.545,67.77,33.544,95.089c15.947,24.203,34.01,51.642,45.656,100.29c2.535,10.052,9.761,15.366,20.898,15.366h76.772
			c2.659,0,4.827-2.125,4.827-4.731V386.47C226.808,383.856,224.64,381.731,221.981,381.731z"/>
	</g>
	<linearGradient id="SVGID_7_" gradientUnits="userSpaceOnUse" x1="1265.1323" y1="150.4453" x2="197.2661" y2="317.9304">
		<stop  offset="0.1104" style="stop-color:#00486E"/>
		<stop  offset="0.589" style="stop-color:#36A7BB"/>
		<stop  offset="1" style="stop-color:#00B5CB"/>
	</linearGradient>
	<path fill="url(#SVGID_7_)" d="M725.784,173.961v53.128v62.801c0,7.158,2.573,30.63,35.955,31.797l0.851,0.043
		c0.543,0.031,1.12,0.064,1.731,0.064h3.322c1.565,0,2.817-1.262,2.817-2.826v-22.205c0-0.758-0.312-1.52-0.859-2.049l-4.96-4.701
		V227.09v-53.007c0-7.159-2.572-30.628-35.955-31.793l-0.847-0.042c-0.546-0.037-1.124-0.064-1.735-0.064h-3.322
		c-1.564,0-2.817,1.258-2.817,2.823v22.201c0,0.76,0.316,1.521,0.859,2.046L725.784,173.961z"/>
	<linearGradient id="SVGID_8_" gradientUnits="userSpaceOnUse" x1="1262.4546" y1="133.4126" x2="194.5985" y2="300.8961">
		<stop  offset="0.1104" style="stop-color:#00486E"/>
		<stop  offset="0.589" style="stop-color:#36A7BB"/>
		<stop  offset="1" style="stop-color:#00B5CB"/>
	</linearGradient>
	<path fill="url(#SVGID_8_)" d="M621.833,325.638c13.101,0,24.232-1.479,34.027-4.533l3.181-0.979
		c1.501-0.464,2.313-2.041,1.839-3.548l-9.858-31.732c-0.462-1.494-2.036-2.333-3.549-1.849l-3.16,0.989
		c-5.925,1.834-13.488,2.769-22.479,2.769c-17.657,0-28.833-3.316-35.225-10.431c-6.849-7.652-10.175-21.537-10.175-42.46
		c0.008-44.976,14.647-52.879,45.399-52.879c17.653,0,28.841,3.309,35.232,10.428c4.892,5.453,7.948,14.036,9.338,26.18
		l-52.09,8.865c-1.369,0.239-2.361,1.415-2.361,2.785v33.72c0,0.829,0.36,1.631,1.002,2.163c0.64,0.535,1.486,0.749,2.304,0.63
		l88.528-15.069c1.355-0.233,2.334-1.415,2.334-2.79v-14.033c0-31.364-6.399-53.121-20.105-68.424
		c-14.087-15.722-35.101-23.362-64.182-23.362c-56.699,0-84.288,30.024-84.301,91.786c0,31.371,6.404,53.1,20.12,68.419
		C571.744,317.994,592.744,325.638,621.833,325.638z"/>
	<linearGradient id="SVGID_9_" gradientUnits="userSpaceOnUse" x1="1269.1138" y1="175.8481" x2="201.2533" y2="343.3323">
		<stop  offset="0.1104" style="stop-color:#00486E"/>
		<stop  offset="0.589" style="stop-color:#36A7BB"/>
		<stop  offset="1" style="stop-color:#00B5CB"/>
	</linearGradient>
	<path fill="url(#SVGID_9_)" d="M873.192,325.638c19.928,0,39.624-3.843,53.647-14.279c0,0,0.003,0,0.003,0.004
		c5.255,5.456,13.81,9.838,27.76,10.325l0.847,0.043c0.548,0.031,1.124,0.064,1.732,0.064h3.32c1.569,0,2.818-1.262,2.818-2.826
		v-22.205c0-0.758-0.308-1.52-0.855-2.049l-4.964-4.701V227.09v-53.007v-25.325c0-1.557-1.282-2.821-2.835-2.821h-27.02
		c-0.819,0-1.607,0.369-2.15,0.992l-4.711,5.532c-12.646-6.984-28.23-10.383-47.593-10.383c-56.712,0-84.274,30.024-84.274,91.786
		c-0.025,31.364,6.382,53.1,20.093,68.419C823.124,317.994,844.111,325.638,873.192,325.638z M873.192,180.985
		c17.652,0,28.846,3.309,35.221,10.428c6.854,7.646,10.184,21.533,10.184,42.451c0,44.971-14.635,52.891-45.404,52.891
		c-17.645,0-28.841-3.316-35.225-10.431c-6.836-7.652-10.175-21.537-10.175-42.46C827.792,188.888,842.435,180.985,873.192,180.985z
		"/>
	<linearGradient id="SVGID_10_" gradientUnits="userSpaceOnUse" x1="1273.1792" y1="201.7856" x2="205.3213" y2="369.2694">
		<stop  offset="0.1104" style="stop-color:#00486E"/>
		<stop  offset="0.589" style="stop-color:#36A7BB"/>
		<stop  offset="1" style="stop-color:#00B5CB"/>
	</linearGradient>
	<path fill="url(#SVGID_10_)" d="M1081.399,215.748h-35.703c-15.549,0-23.433-5.101-23.433-15.165c0-6.205,0-20.735,46.413-20.735
		c19.495,0,33.014,4.205,41.333,12.862c0.573,0.593,1.377,0.95,2.231,0.992c0.848,0.041,1.698-0.231,2.336-0.761l25.437-21.247
		c1.321-1.101,1.43-2.987,0.249-4.216c-16.464-17.129-39.881-25.454-71.586-25.454c-75.711,0-87.02,36.689-87.02,58.559
		c0,26.377,19.803,52.996,64.039,52.996h35.703c15.555,0,23.434,5.1,23.434,15.165c0,6.204,0,20.734-46.417,20.734
		c-19.495,0-33.01-4.206-41.325-12.859c-0.572-0.594-1.377-0.954-2.231-0.999c-0.859-0.051-1.697,0.233-2.339,0.766l-25.434,21.244
		c-1.321,1.104-1.433,2.988-0.248,4.217c16.46,17.127,39.876,25.455,71.577,25.455c75.721,0,87.024-36.688,87.024-58.558
		C1145.44,242.366,1125.64,215.748,1081.399,215.748z"/>
	<linearGradient id="SVGID_11_" gradientUnits="userSpaceOnUse" x1="1254.6812" y1="83.8545" x2="186.8262" y2="251.3378">
		<stop  offset="0.1104" style="stop-color:#00486E"/>
		<stop  offset="0.589" style="stop-color:#36A7BB"/>
		<stop  offset="1" style="stop-color:#00B5CB"/>
	</linearGradient>
	<path fill="url(#SVGID_11_)" d="M290.762,173.961v53.128v62.801c0,7.158,2.573,30.63,35.956,31.797l0.846,0.043
		c0.547,0.031,1.125,0.064,1.731,0.064h3.326c1.561,0,2.813-1.262,2.813-2.826v-22.205c0-0.758-0.312-1.52-0.859-2.049l-4.955-4.701
		V227.09v-53.007c0-7.159-2.578-30.628-35.959-31.793l-0.842-0.042c-0.552-0.037-1.129-0.064-1.736-0.064h-3.327
		c-1.564,0-2.817,1.258-2.817,2.823v22.201c0,0.76,0.317,1.521,0.864,2.046L290.762,173.961z"/>
	<linearGradient id="SVGID_12_" gradientUnits="userSpaceOnUse" x1="1253.7456" y1="77.8662" x2="185.8839" y2="245.3506">
		<stop  offset="0.1104" style="stop-color:#00486E"/>
		<stop  offset="0.589" style="stop-color:#36A7BB"/>
		<stop  offset="1" style="stop-color:#00B5CB"/>
	</linearGradient>
	<path fill="url(#SVGID_12_)" d="M474.258,305.957c8.979-9.283,20.487-14.717,34.189-16.134c2.257-0.233,4.575-0.348,6.896-0.348
		c1.214,0,2.458,0.066,3.703,0.13V109.347c0-7.538-2.814-32.119-38.829-32.119h-3.335c-1.569,0-2.847,1.271-2.847,2.842v22.348
		c0,0.785,0.312,1.529,0.876,2.063l4.968,4.736v42.526c-12.326-6.227-27.336-9.264-45.712-9.264
		c-57.105,0-84.865,30.23-84.874,92.408c0,31.575,6.435,53.463,20.252,68.871c14.19,15.827,35.327,23.522,64.621,23.522
		c10.235,0,19.585-1.043,28.029-3.09c0.675-1.467,1.389-2.938,2.181-4.4C467.319,314.311,470.556,309.779,474.258,305.957z
		 M398.706,277.616c-6.896-7.693-10.249-21.665-10.249-42.727c0-45.28,14.737-53.247,45.711-53.247
		c17.769,0,29.047,3.331,35.464,10.502c6.896,7.696,10.248,21.678,10.248,42.745c0,45.265-14.737,53.242-45.712,53.242
		C416.4,288.131,405.123,284.786,398.706,277.616z"/>
	<g>
		<g>
			<linearGradient id="SVGID_13_" gradientUnits="userSpaceOnUse" x1="329.4355" y1="427.3638" x2="1442.4331" y2="379.8505">
				<stop  offset="0.1288" style="stop-color:#8C80B5"/>
				<stop  offset="0.628" style="stop-color:#645397"/>
				<stop  offset="0.8712" style="stop-color:#55428C"/>
			</linearGradient>
			<path fill="url(#SVGID_13_)" d="M404.588,383.864c-24.891,0-37.007,13.176-37.007,40.289c0,13.772,2.801,23.318,8.829,30.021
				c6.182,6.908,15.408,10.268,28.179,10.268c5.75,0,10.637-0.64,14.938-1.979l1.385-0.438c0.663-0.211,1.03-0.906,0.821-1.548
				l-4.34-13.931c-0.196-0.676-0.893-1.033-1.539-0.82l-1.398,0.419c-2.595,0.821-5.913,1.229-9.867,1.229
				c-7.751,0-12.659-1.455-15.459-4.575c-3.014-3.371-4.476-9.46-4.476-18.646c0-19.737,6.43-23.232,19.936-23.232
				c7.743,0,12.668,1.466,15.468,4.588c2.146,2.406,3.489,6.173,4.104,11.507l-22.869,3.888c-0.611,0.103-1.03,0.622-1.03,1.219
				v14.799c0,0.375,0.145,0.723,0.418,0.953c0.299,0.236,0.671,0.34,1.018,0.28l38.85-6.613c0.611-0.099,1.043-0.631,1.043-1.226
				v-6.162c0-13.773-2.8-23.319-8.824-30.037C426.567,387.207,417.367,383.864,404.588,383.864z"/>
			<linearGradient id="SVGID_14_" gradientUnits="userSpaceOnUse" x1="328.6963" y1="410.0571" x2="1441.6827" y2="362.5444">
				<stop  offset="0.1288" style="stop-color:#8C80B5"/>
				<stop  offset="0.628" style="stop-color:#645397"/>
				<stop  offset="0.8712" style="stop-color:#55428C"/>
			</linearGradient>
			<path fill="url(#SVGID_14_)" d="M358.953,450.583v-81.171c0-3.277-1.214-14.016-16.917-14.016h-1.454
				c-0.692,0-1.253,0.556-1.253,1.253v9.748c0,0.334,0.132,0.656,0.385,0.906l2.168,2.057v18.544
				c-5.379-2.727-11.928-4.04-19.932-4.04c-24.908,0-37.012,13.176-37.012,40.289c0,13.772,2.805,23.318,8.829,30.021
				c6.199,6.908,15.413,10.268,28.183,10.268c8.739,0,16.028-1.73,21.706-5.127c1.176,3.445,5.481,3.445,7.49,3.445h8.602
				c0.68,0,1.236-0.575,1.236-1.242v-6.446c0-0.248-0.068-0.471-0.197-0.669C359.821,452.876,358.953,451.104,358.953,450.583z
				 M321.951,447.375c-7.751,0-12.672-1.455-15.46-4.575c-3.014-3.371-4.48-9.46-4.48-18.646c0-19.737,6.439-23.232,19.94-23.232
				c7.747,0,12.667,1.466,15.455,4.588c3.014,3.373,4.477,9.445,4.477,18.645C341.882,443.887,335.448,447.375,321.951,447.375z"/>
		</g>
		<g>
			<linearGradient id="SVGID_15_" gradientUnits="userSpaceOnUse" x1="330.4531" y1="451.1177" x2="1443.4371" y2="403.605">
				<stop  offset="0.1288" style="stop-color:#8C80B5"/>
				<stop  offset="0.628" style="stop-color:#645397"/>
				<stop  offset="0.8712" style="stop-color:#55428C"/>
			</linearGradient>
			<path fill="url(#SVGID_15_)" d="M1019.369,361.843c-1.192-0.074-6.314-0.202-7.554-0.202c-13.647,0-29.637,4.849-47.413,14.375
				l-0.983,0.473c-0.543-8.219-5.396-14.848-15.114-14.848h-14.262c-0.025,0-0.043,0.009-0.063,0.009l-5.396-0.009
				c-0.594,0.167-1.063,0.212-1.457,0.59c-0.377,0.378-0.586,0.889-0.586,1.426v18.281c0,0.807,0.47,1.53,1.21,1.859l7.755,3.447
				v98.844c0,1.124,0.91,2.031,2.031,2.031h23.911c1.124,0,2.022-0.907,2.022-2.031v-78.044l14.074-7.349
				c13.831-7.397,25.289-11.158,34.074-11.158c1.573,0,6.43,0.119,7.323,0.241c0.591,0.103,1.181-0.098,1.63-0.483
				c0.432-0.378,0.688-0.93,0.688-1.526v-23.896C1021.258,362.804,1020.437,361.925,1019.369,361.843z"/>
			<linearGradient id="SVGID_16_" gradientUnits="userSpaceOnUse" x1="330.7085" y1="457.1909" x2="1443.7039" y2="409.6778">
				<stop  offset="0.1288" style="stop-color:#8C80B5"/>
				<stop  offset="0.628" style="stop-color:#645397"/>
				<stop  offset="0.8712" style="stop-color:#55428C"/>
			</linearGradient>
			<path fill="url(#SVGID_16_)" d="M1128.924,376.044c-10.129-11.266-25.233-16.753-46.156-16.753
				c-40.791,0-60.633,21.536-60.633,65.8c0,22.486,4.596,38.066,14.473,49.034c10.132,11.283,25.236,16.755,46.16,16.755
				c40.803,0,60.628-21.528,60.628-65.789C1143.396,402.615,1138.791,387.021,1128.924,376.044z M1082.768,463.013
				c-12.702,0-20.744-2.386-25.34-7.506c-4.921-5.464-7.312-15.419-7.312-30.416c0-32.239,10.53-37.905,32.651-37.905
				c12.692,0,20.743,2.374,25.326,7.472c4.93,5.484,7.345,15.418,7.345,30.434C1115.439,457.323,1104.901,463.013,1082.768,463.013z
				"/>
			<linearGradient id="SVGID_17_" gradientUnits="userSpaceOnUse" x1="329.8535" y1="437.1421" x2="1442.8447" y2="389.6291">
				<stop  offset="0.1288" style="stop-color:#8C80B5"/>
				<stop  offset="0.628" style="stop-color:#645397"/>
				<stop  offset="0.8712" style="stop-color:#55428C"/>
			</linearGradient>
			<path fill="url(#SVGID_17_)" d="M675.365,468.196V363.657c0-1.113-0.91-2.016-2.035-2.016h-23.903
				c-1.129,0-2.031,0.902-2.031,2.016v80.827l-14.039,7.334c-13.865,7.409-25.319,11.169-34.083,11.169
				c-4.639,0-7.431-1.086-8.948-2.012c-5.609-3.349-8.829-13.574-8.829-28.061v-45.67l7.756-3.447
				c0.74-0.329,1.206-1.053,1.206-1.859v-18.281c0-0.537-0.21-1.048-0.582-1.426c-0.393-0.378-0.863-0.423-1.458-0.59l-32.877,0.077
				c-1.116,0.001-2.014,0.901-2.014,2.032v69.164c0,25.626,7.533,43.155,22.433,52.071c6.528,3.911,14.317,5.895,23.103,5.895
				c13.647,0,29.628-4.832,47.422-14.379l0.963-0.483c0.546,8.239,5.398,12.102,15.117,12.102h14.254
				c1.128,0,2.026-0.917,2.026-2.038v-10.568c0-0.384-0.12-0.789-0.338-1.119C676.865,471.955,675.365,469.004,675.365,468.196z"/>
			<linearGradient id="SVGID_18_" gradientUnits="userSpaceOnUse" x1="330.2754" y1="447.0728" x2="1443.2714" y2="399.5596">
				<stop  offset="0.1288" style="stop-color:#8C80B5"/>
				<stop  offset="0.628" style="stop-color:#645397"/>
				<stop  offset="0.8712" style="stop-color:#55428C"/>
			</linearGradient>
			<path fill="url(#SVGID_18_)" d="M908.403,468.196V363.657c0-1.113-0.905-2.016-2.026-2.016h-23.92
				c-1.12,0-2.034,0.902-2.034,2.016v80.827l-14.05,7.334c-13.834,7.409-25.301,11.169-34.091,11.169
				c-4.617,0-7.392-1.086-8.905-2.012c-5.631-3.349-8.847-13.574-8.847-28.061v-45.67l7.748-3.447
				c0.738-0.329,1.213-1.053,1.213-1.859v-18.281c0-0.537-0.213-1.048-0.602-1.426c-0.364-0.378-0.873-0.59-1.425-0.59h-0.013
				l-32.868,0.077c-1.129,0.001-2.031,0.901-2.031,2.032v69.164c0,25.626,7.542,43.155,22.433,52.071
				c6.559,3.911,14.331,5.895,23.104,5.895c13.678,0,29.646-4.832,47.422-14.379l0.983-0.483c0.54,8.239,5.388,12.102,15.109,12.102
				h14.267c1.104,0,2.022-0.917,2.022-2.038v-10.568c0-0.384-0.12-0.789-0.354-1.119
				C909.905,471.955,908.403,469.004,908.403,468.196z"/>
			<linearGradient id="SVGID_19_" gradientUnits="userSpaceOnUse" x1="329.4868" y1="428.687" x2="1442.4982" y2="381.1732">
				<stop  offset="0.1288" style="stop-color:#8C80B5"/>
				<stop  offset="0.628" style="stop-color:#645397"/>
				<stop  offset="0.8712" style="stop-color:#55428C"/>
			</linearGradient>
			<path fill="url(#SVGID_19_)" d="M766.374,361.641h-30.958v-28.472c0-0.723-0.381-1.384-0.995-1.751
				c-0.596-0.365-1.377-0.376-2.023-0.031l-23.898,13.086c-0.646,0.366-1.057,1.037-1.057,1.779v15.389H695.54
				c-1.129,0-2.03,0.902-2.03,2.016v21.573c0,1.122,0.901,2.015,2.03,2.015h11.902v45.839c0,25.619,7.563,43.146,22.446,52.054
				c6.366,3.822,13.979,5.743,22.646,5.743c4.335,0,8.956-0.478,13.771-1.451c1.072-0.2,1.777-1.235,1.603-2.308l-3.848-23.395
				c-0.085-0.561-0.394-1.056-0.846-1.37c-0.492-0.307-1.064-0.419-1.6-0.295c-9.483,2.118-15.036,0.475-17.371-0.928
				c-5.613-3.37-8.828-13.581-8.828-28.051v-45.839h30.958c1.123,0,2.039-0.893,2.039-2.015v-21.573
				C768.413,362.543,767.497,361.641,766.374,361.641z"/>
			<linearGradient id="SVGID_20_" gradientUnits="userSpaceOnUse" x1="328.5522" y1="406.6519" x2="1441.5409" y2="359.139">
				<stop  offset="0.1288" style="stop-color:#8C80B5"/>
				<stop  offset="0.628" style="stop-color:#645397"/>
				<stop  offset="0.8712" style="stop-color:#55428C"/>
			</linearGradient>
			<path fill="url(#SVGID_20_)" d="M550.081,319.074c-15.297-7.203-28.512-10.056-39.53-8.925
				c-8.614,0.892-15.913,4.131-21.62,10.032c-2.707,2.789-4.788,5.996-6.563,9.304c-7.101,13.182-7.764,27.806-7.781,32.156
				l-11.689,7.85c-0.569,0.373-0.897,1.014-0.897,1.68v14.038c0,1.136,0.911,2.036,2.026,2.036h10.577v98.837
				c0,1.121,0.911,2.038,2.031,2.038h23.916c1.129,0,2.013-0.917,2.013-2.038v-98.837h8.854h15.023h6.921
				c1.112,0,2.014-0.911,2.014-2.032v-3.081c0.008-0.065,0.03-0.127,0.03-0.193l-0.03-0.02v-0.146
				c0.017-0.076,0.03-0.151,0.03-0.235v-17.881c0-1.113-0.932-2.016-2.044-2.016h-21.945h-8.807
				c0.205-4.203,1.295-14.098,6.964-19.938c6.306-6.493,16.832-5.932,30.795,1.465c0.521,0.268,1.125,0.312,1.663,0.115
				c0.552-0.203,0.975-0.642,1.189-1.177l7.879-20.474C551.505,320.647,551.043,319.516,550.081,319.074z"/>
		</g>
	</g>
	<g opacity="0.7">
		<linearGradient id="SVGID_21_" gradientUnits="userSpaceOnUse" x1="152.7119" y1="-92.5161" x2="89.1879" y2="368.0341">
			<stop  offset="0.1104" style="stop-color:#FFFFFF;stop-opacity:0"/>
			<stop  offset="1" style="stop-color:#FFFFFF"/>
		</linearGradient>
		<path fill="url(#SVGID_21_)" d="M103.17,279.119c-16.789-25.487-28.914-43.903-28.914-79.825
			c0-52.284,47.093-94.869,104.976-94.939h10.539c2.659,0,4.827-2.123,4.827-4.732V80.781c0-2.615-2.167-4.733-4.827-4.733h-10.671
			C105.218,76.172,45.111,131.46,45.111,199.294c0,44.194,15.545,67.77,33.544,95.088c8.106,12.305,16.759,25.451,24.838,41.788
			l29.61-5.373c-9.705-20.986-20.246-36.983-29.459-50.962L103.17,279.119z"/>
		<linearGradient id="SVGID_22_" gradientUnits="userSpaceOnUse" x1="768.2485" y1="-7.6152" x2="704.7244" y2="452.9353">
			<stop  offset="0.1104" style="stop-color:#FFFFFF;stop-opacity:0"/>
			<stop  offset="1" style="stop-color:#FFFFFF"/>
		</linearGradient>
		<path fill="url(#SVGID_22_)" d="M728.686,142.29l-0.847-0.042c-0.546-0.037-1.124-0.064-1.735-0.064h-3.322
			c-1.564,0-2.817,1.258-2.817,2.823v22.201c0,0.76,0.316,1.521,0.859,2.046l4.96,4.707v49.268l38.857-7.053v-42.093
			C764.641,166.924,762.069,143.455,728.686,142.29z"/>
		<linearGradient id="SVGID_23_" gradientUnits="userSpaceOnUse" x1="655.8745" y1="-23.1138" x2="592.351" y2="437.4327">
			<stop  offset="0.1104" style="stop-color:#FFFFFF;stop-opacity:0"/>
			<stop  offset="1" style="stop-color:#FFFFFF"/>
		</linearGradient>
		<path fill="url(#SVGID_23_)" d="M621.833,142.078c-56.699,0-84.288,30.024-84.301,91.786c0,8.442,0.48,16.164,1.426,23.272
			l38.317-6.954c-0.556-4.875-0.841-10.295-0.841-16.318c0.008-44.976,14.647-52.879,45.399-52.879
			c17.653,0,28.841,3.309,35.232,10.428c4.892,5.453,7.948,14.036,9.338,26.18l-52.09,8.865c-1.369,0.239-2.361,1.415-2.361,2.785
			v14.646l94.042-17.068c-0.914-27.607-7.326-47.253-19.979-61.381C671.928,149.718,650.915,142.078,621.833,142.078z"/>
		<linearGradient id="SVGID_24_" gradientUnits="userSpaceOnUse" x1="899.5405" y1="10.4951" x2="836.0166" y2="471.0446">
			<stop  offset="0.1104" style="stop-color:#FFFFFF;stop-opacity:0"/>
			<stop  offset="1" style="stop-color:#FFFFFF"/>
		</linearGradient>
		<path fill="url(#SVGID_24_)" d="M957.5,148.758c0-1.557-1.282-2.821-2.835-2.821h-27.02c-0.819,0-1.607,0.369-2.15,0.992
			l-4.711,5.532c-12.646-6.984-28.23-10.383-47.593-10.383c-49.383,0-76.654,22.776-82.88,69.439l40.983-7.438
			c6-19.009,19.783-23.094,41.896-23.094c16.686,0,27.593,2.961,34.123,9.296l50.186-9.108v-7.091V148.758z"/>
		<linearGradient id="SVGID_25_" gradientUnits="userSpaceOnUse" x1="1070.9448" y1="34.1357" x2="1007.421" y2="494.6845">
			<stop  offset="0.1104" style="stop-color:#FFFFFF;stop-opacity:0"/>
			<stop  offset="1" style="stop-color:#FFFFFF"/>
		</linearGradient>
		<path fill="url(#SVGID_25_)" d="M987.359,175.754l131.396-23.848c-13.67-6.627-30.255-9.882-50.079-9.882
			C1018.132,142.024,996.295,158.377,987.359,175.754z"/>
		<linearGradient id="SVGID_26_" gradientUnits="userSpaceOnUse" x1="348.856" y1="-65.4629" x2="285.3317" y2="395.0889">
			<stop  offset="0.1104" style="stop-color:#FFFFFF;stop-opacity:0"/>
			<stop  offset="1" style="stop-color:#FFFFFF"/>
		</linearGradient>
		<path fill="url(#SVGID_26_)" d="M329.621,227.09v-53.007c0-7.159-2.578-30.628-35.959-31.793l-0.842-0.042
			c-0.552-0.037-1.129-0.064-1.736-0.064h-3.327c-1.564,0-2.817,1.258-2.817,2.823v22.201c0,0.76,0.317,1.521,0.864,2.046
			l4.959,4.707v53.128v62.801c0,2.513,0.324,7.034,2.178,11.897l41.208-7.48l-4.527-4.294V227.09z"/>
		<linearGradient id="SVGID_27_" gradientUnits="userSpaceOnUse" x1="474.1445" y1="-48.1816" x2="410.6203" y2="412.3697">
			<stop  offset="0.1104" style="stop-color:#FFFFFF;stop-opacity:0"/>
			<stop  offset="1" style="stop-color:#FFFFFF"/>
		</linearGradient>
		<path fill="url(#SVGID_27_)" d="M480.218,77.228h-3.335c-1.569,0-2.847,1.271-2.847,2.842v22.348c0,0.785,0.312,1.529,0.876,2.063
			l4.968,4.736v42.526c-12.326-6.227-27.336-9.264-45.712-9.264c-57.105,0-84.865,30.23-84.874,92.408
			c0,22.971,3.425,40.795,10.601,54.748l43.665-7.926c-1.85-1.194-3.473-2.55-4.855-4.095c-6.896-7.693-10.249-21.665-10.249-42.727
			c0-45.28,14.737-53.247,45.711-53.247c17.769,0,29.047,3.331,35.464,10.502c6.896,7.696,10.248,21.678,10.248,42.745
			c0,15.068-1.643,25.986-4.965,33.872l44.131-8.01V109.347C519.047,101.809,516.233,77.228,480.218,77.228z"/>
	</g>
	<g opacity="0.15">
		<path fill="#009CC9" d="M243.614,213.614l-81.103-64.658c-0.915-0.721-1.988-1.106-3.108-1.106c-0.543,0-1.065,0.086-1.586,0.265
			l-12.676,4.413c-1.625,0.568-2.928,1.978-3.484,3.779c-0.564,1.802-0.333,3.827,0.606,5.399l34.036,56.854l-34.036,56.854
			c-0.94,1.589-1.171,3.601-0.606,5.404c0.556,1.803,1.859,3.206,3.484,3.779l12.68,4.413c0.518,0.18,1.04,0.274,1.583,0.274
			c1.12,0,2.202-0.394,3.112-1.131l81.098-64.64c1.424-1.142,2.288-2.985,2.288-4.953
			C245.901,216.589,245.038,214.758,243.614,213.614z"/>
		<path fill="#009CC9" d="M223.388,422.332h-80.299c-4.296,0-6.378,3.082-6.378,6.878c0,3.775,2.082,6.849,6.378,6.849h80.342
			c1.834,0,3.331-1.536,3.331-3.417h0.047v-6.987C226.808,423.808,225.272,422.332,223.388,422.332z"/>
		<path fill="#009CC9" d="M223.388,448.346H151.25c-4.297,0-6.375,3.089-6.375,6.881c0,3.777,2.078,6.862,6.375,6.862h72.18
			c1.834,0,3.331-1.538,3.331-3.425h0.047v-6.985C226.808,449.845,225.272,448.346,223.388,448.346z"/>
		<path fill="#009CC9" d="M223.388,474.376H172.75c-4.284,0-6.375,3.087-6.375,6.889c0,3.784,2.091,6.854,6.375,6.854h50.68
			c1.834,0,3.331-1.537,3.331-3.416h0.047v-6.988C226.808,475.875,225.272,474.376,223.388,474.376z"/>
		<path fill="#009CC9" d="M221.981,381.731h-70.855c-12.706-49.128-31.975-78.369-47.481-101.896l-0.475-0.716
			c-16.789-25.487-28.914-43.903-28.914-79.825c0-52.284,47.093-94.869,104.976-94.939h10.539c2.659,0,4.827-2.123,4.827-4.732
			V80.781c0-2.615-2.167-4.733-4.827-4.733h-10.671C105.218,76.172,45.111,131.46,45.111,199.294
			c0,44.194,15.545,67.77,33.544,95.089c15.947,24.203,34.01,51.642,45.656,100.29c2.535,10.052,9.761,15.366,20.898,15.366h76.772
			c2.659,0,4.827-2.125,4.827-4.731V386.47C226.808,383.856,224.64,381.731,221.981,381.731z"/>
		<path fill="#009CC9" d="M764.641,290.015V227.09v-53.007c0-7.159-2.572-30.628-35.955-31.793l-0.847-0.042
			c-0.546-0.037-1.124-0.064-1.735-0.064h-3.322c-1.564,0-2.817,1.258-2.817,2.823v22.201c0,0.76,0.316,1.521,0.859,2.046
			l4.96,4.707v53.128v62.801c0,7.158,2.573,30.63,35.955,31.797l0.851,0.043c0.543,0.031,1.12,0.064,1.731,0.064h3.322
			c1.565,0,2.817-1.262,2.817-2.826v-22.205c0-0.758-0.312-1.52-0.859-2.049L764.641,290.015z"/>
		<path fill="#009CC9" d="M621.833,325.638c13.101,0,24.232-1.479,34.027-4.533l3.181-0.979c1.501-0.464,2.313-2.041,1.839-3.548
			l-9.858-31.732c-0.462-1.494-2.036-2.333-3.549-1.849l-3.16,0.989c-5.925,1.834-13.488,2.769-22.479,2.769
			c-17.657,0-28.833-3.316-35.225-10.431c-6.849-7.652-10.175-21.537-10.175-42.46c0.008-44.976,14.647-52.879,45.399-52.879
			c17.653,0,28.841,3.309,35.232,10.428c4.892,5.453,7.948,14.036,9.338,26.18l-52.09,8.865c-1.369,0.239-2.361,1.415-2.361,2.785
			v33.72c0,0.829,0.36,1.631,1.002,2.163c0.64,0.535,1.486,0.749,2.304,0.63l88.528-15.069c1.355-0.233,2.334-1.415,2.334-2.79
			v-14.033c0-31.364-6.399-53.121-20.105-68.424c-14.087-15.722-35.101-23.362-64.182-23.362c-56.699,0-84.288,30.024-84.301,91.786
			c0,31.371,6.404,53.1,20.12,68.419C571.744,317.994,592.744,325.638,621.833,325.638z"/>
		<path fill="#009CC9" d="M873.192,325.638c19.928,0,39.624-3.843,53.647-14.279c0,0,0.003,0,0.003,0.004
			c5.255,5.456,13.81,9.838,27.76,10.325l0.847,0.043c0.548,0.031,1.124,0.064,1.732,0.064h3.32c1.569,0,2.818-1.262,2.818-2.826
			v-22.205c0-0.758-0.308-1.52-0.855-2.049l-4.964-4.701V227.09v-53.007v-25.325c0-1.557-1.282-2.821-2.835-2.821h-27.02
			c-0.819,0-1.607,0.369-2.15,0.992l-4.711,5.532c-12.646-6.984-28.23-10.383-47.593-10.383c-56.712,0-84.274,30.024-84.274,91.786
			c-0.025,31.364,6.382,53.1,20.093,68.419C823.124,317.994,844.111,325.638,873.192,325.638z M873.192,180.985
			c17.652,0,28.846,3.309,35.221,10.428c6.854,7.646,10.184,21.533,10.184,42.451c0,44.971-14.635,52.891-45.404,52.891
			c-17.645,0-28.841-3.316-35.225-10.431c-6.836-7.652-10.175-21.537-10.175-42.46C827.792,188.888,842.435,180.985,873.192,180.985
			z"/>
		<path fill="#009CC9" d="M1045.696,253.579h35.703c15.555,0,23.434,5.1,23.434,15.165c0,6.204,0,20.734-46.417,20.734
			c-19.495,0-33.01-4.206-41.325-12.859c-0.572-0.594-1.377-0.954-2.231-0.999c-0.859-0.051-1.697,0.233-2.339,0.766l-25.434,21.244
			c-1.321,1.104-1.433,2.988-0.248,4.217c16.46,17.127,39.876,25.455,71.577,25.455c75.721,0,87.024-36.688,87.024-58.558
			c0-26.377-19.8-52.996-64.041-52.996h-35.703c-15.549,0-23.433-5.101-23.433-15.165c0-6.205,0-20.735,46.413-20.735
			c19.495,0,33.014,4.205,41.333,12.862c0.573,0.593,1.377,0.95,2.231,0.992c0.848,0.041,1.698-0.231,2.336-0.761l25.437-21.247
			c1.321-1.101,1.43-2.987,0.249-4.216c-16.464-17.129-39.881-25.454-71.586-25.454c-75.711,0-87.02,36.689-87.02,58.559
			C981.657,226.96,1001.459,253.579,1045.696,253.579z"/>
		<path fill="#009CC9" d="M290.762,173.961v53.128v62.801c0,7.158,2.573,30.63,35.956,31.797l0.846,0.043
			c0.547,0.031,1.125,0.064,1.731,0.064h3.326c1.561,0,2.813-1.262,2.813-2.826v-22.205c0-0.758-0.312-1.52-0.859-2.049
			l-4.955-4.701V227.09v-53.007c0-7.159-2.578-30.628-35.959-31.793l-0.842-0.042c-0.552-0.037-1.129-0.064-1.736-0.064h-3.327
			c-1.564,0-2.817,1.258-2.817,2.823v22.201c0,0.76,0.317,1.521,0.864,2.046L290.762,173.961z"/>
		<path fill="#009CC9" d="M434.168,327.282c10.235,0,19.585-1.043,28.029-3.09c0.675-1.467,1.389-2.938,2.181-4.4
			c2.941-5.48,6.178-10.013,9.88-13.835c8.979-9.283,20.487-14.717,34.189-16.134c2.257-0.233,4.575-0.348,6.896-0.348
			c1.214,0,2.458,0.066,3.703,0.13V109.347c0-7.538-2.814-32.119-38.829-32.119h-3.335c-1.569,0-2.847,1.271-2.847,2.842v22.348
			c0,0.785,0.312,1.529,0.876,2.063l4.968,4.736v42.526c-12.326-6.227-27.336-9.264-45.712-9.264
			c-57.105,0-84.865,30.23-84.874,92.408c0,31.575,6.435,53.463,20.252,68.871C383.737,319.586,404.874,327.282,434.168,327.282z
			 M434.168,181.642c17.769,0,29.047,3.331,35.464,10.502c6.896,7.696,10.248,21.678,10.248,42.745
			c0,45.265-14.737,53.242-45.712,53.242c-17.768,0-29.046-3.345-35.463-10.515c-6.896-7.693-10.249-21.665-10.249-42.727
			C388.457,189.608,403.194,181.642,434.168,181.642z"/>
		<path fill="#009CC9" d="M404.588,383.864c-24.891,0-37.007,13.176-37.007,40.289c0,13.772,2.801,23.318,8.829,30.021
			c6.182,6.908,15.408,10.268,28.179,10.268c5.75,0,10.637-0.64,14.938-1.979l1.385-0.438c0.663-0.211,1.03-0.906,0.821-1.548
			l-4.34-13.931c-0.196-0.676-0.893-1.033-1.539-0.82l-1.398,0.419c-2.595,0.821-5.913,1.229-9.867,1.229
			c-7.751,0-12.659-1.455-15.459-4.575c-3.014-3.371-4.476-9.46-4.476-18.646c0-19.737,6.43-23.232,19.936-23.232
			c7.743,0,12.668,1.466,15.468,4.588c2.146,2.406,3.489,6.173,4.104,11.507l-22.869,3.888c-0.611,0.103-1.03,0.622-1.03,1.219
			v14.799c0,0.375,0.145,0.723,0.418,0.953c0.299,0.236,0.671,0.34,1.018,0.28l38.85-6.613c0.611-0.099,1.043-0.631,1.043-1.226
			v-6.162c0-13.773-2.8-23.319-8.824-30.037C426.567,387.207,417.367,383.864,404.588,383.864z"/>
		<path fill="#009CC9" d="M358.953,450.583v-81.171c0-3.277-1.214-14.016-16.917-14.016h-1.454c-0.692,0-1.253,0.556-1.253,1.253
			v9.748c0,0.334,0.132,0.656,0.385,0.906l2.168,2.057v18.544c-5.379-2.727-11.928-4.04-19.932-4.04
			c-24.908,0-37.012,13.176-37.012,40.289c0,13.772,2.805,23.318,8.829,30.021c6.199,6.908,15.413,10.268,28.183,10.268
			c8.739,0,16.028-1.73,21.706-5.127c1.176,3.445,5.481,3.445,7.49,3.445h8.602c0.68,0,1.236-0.575,1.236-1.242v-6.446
			c0-0.248-0.068-0.471-0.197-0.669C359.821,452.876,358.953,451.104,358.953,450.583z M321.951,447.375
			c-7.751,0-12.672-1.455-15.46-4.575c-3.014-3.371-4.48-9.46-4.48-18.646c0-19.737,6.439-23.232,19.94-23.232
			c7.747,0,12.667,1.466,15.455,4.588c3.014,3.373,4.477,9.445,4.477,18.645C341.882,443.887,335.448,447.375,321.951,447.375z"/>
		<path fill="#009CC9" d="M1019.369,361.843c-1.192-0.074-6.314-0.202-7.554-0.202c-13.647,0-29.637,4.849-47.413,14.375
			l-0.983,0.473c-0.543-8.219-5.396-14.848-15.114-14.848h-14.262c-0.025,0-0.043,0.009-0.063,0.009l-5.396-0.009
			c-0.594,0.167-1.063,0.212-1.457,0.59c-0.377,0.378-0.586,0.889-0.586,1.426v18.281c0,0.807,0.47,1.53,1.21,1.859l7.755,3.447
			v98.844c0,1.124,0.91,2.031,2.031,2.031h23.911c1.124,0,2.022-0.907,2.022-2.031v-78.044l14.074-7.349
			c13.831-7.397,25.289-11.158,34.074-11.158c1.573,0,6.43,0.119,7.323,0.241c0.591,0.103,1.181-0.098,1.63-0.483
			c0.432-0.378,0.688-0.93,0.688-1.526v-23.896C1021.258,362.804,1020.437,361.925,1019.369,361.843z"/>
		<path fill="#009CC9" d="M1082.768,359.292c-40.791,0-60.633,21.536-60.633,65.8c0,22.486,4.596,38.066,14.473,49.034
			c10.132,11.283,25.236,16.755,46.16,16.755c40.803,0,60.628-21.528,60.628-65.789c0-22.477-4.605-38.07-14.472-49.047
			C1118.795,364.779,1103.691,359.292,1082.768,359.292z M1082.768,463.013c-12.702,0-20.744-2.386-25.34-7.506
			c-4.921-5.464-7.312-15.419-7.312-30.416c0-32.239,10.53-37.905,32.651-37.905c12.692,0,20.743,2.374,25.326,7.472
			c4.93,5.484,7.345,15.418,7.345,30.434C1115.439,457.323,1104.901,463.013,1082.768,463.013z"/>
		<path fill="#009CC9" d="M675.365,468.196V363.657c0-1.113-0.91-2.016-2.035-2.016h-23.903c-1.129,0-2.031,0.902-2.031,2.016
			v80.827l-14.039,7.334c-13.865,7.409-25.319,11.169-34.083,11.169c-4.639,0-7.431-1.086-8.948-2.012
			c-5.609-3.349-8.829-13.574-8.829-28.061v-45.67l7.756-3.447c0.74-0.329,1.206-1.053,1.206-1.859v-18.281
			c0-0.537-0.21-1.048-0.582-1.426c-0.393-0.378-0.863-0.423-1.458-0.59l-32.877,0.077c-1.116,0.001-2.014,0.901-2.014,2.032v69.164
			c0,25.626,7.533,43.155,22.433,52.071c6.528,3.911,14.317,5.895,23.103,5.895c13.647,0,29.628-4.832,47.422-14.379l0.963-0.483
			c0.546,8.239,5.398,12.102,15.117,12.102h14.254c1.128,0,2.026-0.917,2.026-2.038v-10.568c0-0.384-0.12-0.789-0.338-1.119
			C676.865,471.955,675.365,469.004,675.365,468.196z"/>
		<path fill="#009CC9" d="M908.403,468.196V363.657c0-1.113-0.905-2.016-2.026-2.016h-23.92c-1.12,0-2.034,0.902-2.034,2.016v80.827
			l-14.05,7.334c-13.834,7.409-25.301,11.169-34.091,11.169c-4.617,0-7.392-1.086-8.905-2.012
			c-5.631-3.349-8.847-13.574-8.847-28.061v-45.67l7.748-3.447c0.738-0.329,1.213-1.053,1.213-1.859v-18.281
			c0-0.537-0.213-1.048-0.602-1.426c-0.364-0.378-0.873-0.59-1.425-0.59h-0.013l-32.868,0.077c-1.129,0.001-2.031,0.901-2.031,2.032
			v69.164c0,25.626,7.542,43.155,22.433,52.071c6.559,3.911,14.331,5.895,23.104,5.895c13.678,0,29.646-4.832,47.422-14.379
			l0.983-0.483c0.54,8.239,5.388,12.102,15.109,12.102h14.267c1.104,0,2.022-0.917,2.022-2.038v-10.568
			c0-0.384-0.12-0.789-0.354-1.119C909.905,471.955,908.403,469.004,908.403,468.196z"/>
		<path fill="#009CC9" d="M766.374,361.641h-30.958v-28.472c0-0.723-0.381-1.384-0.995-1.751c-0.596-0.365-1.377-0.376-2.023-0.031
			l-23.898,13.086c-0.646,0.366-1.057,1.037-1.057,1.779v15.389H695.54c-1.129,0-2.03,0.902-2.03,2.016v21.573
			c0,1.122,0.901,2.015,2.03,2.015h11.902v45.839c0,25.619,7.563,43.146,22.446,52.054c6.366,3.822,13.979,5.743,22.646,5.743
			c4.335,0,8.956-0.478,13.771-1.451c1.072-0.2,1.777-1.235,1.603-2.308l-3.848-23.395c-0.085-0.561-0.394-1.056-0.846-1.37
			c-0.492-0.307-1.064-0.419-1.6-0.295c-9.483,2.118-15.036,0.475-17.371-0.928c-5.613-3.37-8.828-13.581-8.828-28.051v-45.839
			h30.958c1.123,0,2.039-0.893,2.039-2.015v-21.573C768.413,362.543,767.497,361.641,766.374,361.641z"/>
		<path fill="#009CC9" d="M550.081,319.074c-15.297-7.203-28.512-10.056-39.53-8.925c-8.614,0.892-15.913,4.131-21.62,10.032
			c-2.707,2.789-4.788,5.996-6.563,9.304c-7.101,13.182-7.764,27.806-7.781,32.156l-11.689,7.85
			c-0.569,0.373-0.897,1.014-0.897,1.68v14.038c0,1.136,0.911,2.036,2.026,2.036h10.577v98.837c0,1.121,0.911,2.038,2.031,2.038
			h23.916c1.129,0,2.013-0.917,2.013-2.038v-98.837h8.854h15.023h6.921c1.112,0,2.014-0.911,2.014-2.032v-3.081
			c0.008-0.065,0.03-0.127,0.03-0.193l-0.03-0.02v-0.146c0.017-0.076,0.03-0.151,0.03-0.235v-17.881
			c0-1.113-0.932-2.016-2.044-2.016h-21.945h-8.807c0.205-4.203,1.295-14.098,6.964-19.938c6.306-6.493,16.832-5.932,30.795,1.465
			c0.521,0.268,1.125,0.312,1.663,0.115c0.552-0.203,0.975-0.642,1.189-1.177l7.879-20.474
			C551.505,320.647,551.043,319.516,550.081,319.074z"/>
	</g>
</g>
</svg>
